<svg t="1732797146588" class="icon" viewBox="0 0 1024 1024" version="1.1" xmlns="http://www.w3.org/2000/svg" p-id="2737" width="32" height="32" style="background: rgba(128,235,168, 0.8)">
	<path d="M155.008 678.485333a42.666667 42.666667 0 1 1 73.898667 42.666667l-128 221.696a42.666667 42.666667 0 1 1-73.898667-42.666667l128-221.696zM325.717333 678.485333a42.666667 42.666667 0 1 1 73.898667 42.666667l-128 221.696a42.666667 42.666667 0 0 1-73.898667-42.666667l128-221.696zM496.384 678.485333a42.666667 42.666667 0 0 1 73.898667 42.666667l-128 221.696a42.666667 42.666667 0 0 1-73.898667-42.666667l128-221.696zM667.050667 678.485333a42.666667 42.666667 0 0 1 73.898666 42.666667l-128 221.696a42.666667 42.666667 0 0 1-73.898666-42.666667l128-221.696zM837.717333 678.485333a42.666667 42.666667 0 0 1 73.898667 42.666667l-128 221.696a42.666667 42.666667 0 0 1-73.898667-42.666667l128-221.696z" fill="black" p-id="2738">
	</path>
	<path d="M295.594667 291.242667l-43.264 10.368A106.752 106.752 0 0 0 277.333333 512H725.333333a128 128 0 0 0 0.085334-256H725.333333l-47.530666 0.085333-25.258667-39.424a192.085333 192.085333 0 0 0-340.650667 33.152l-16.298666 41.386667zM725.333333 170.666667a213.333333 213.333333 0 0 1 0 426.666666H277.333333a192 192 0 0 1-44.885333-378.709333A277.418667 277.418667 0 0 1 724.394667 170.666667H725.333333z" fill="black" p-id="2739">
	</path>
</svg>
