<svg t="1732797842819" class="icon" viewBox="0 0 1024 1024" version="1.1" xmlns="http://www.w3.org/2000/svg" p-id="7290" width="32" height="32"><path d="M787.980054 598.871533c-7.734148-4.762467-21.148669-11.535731-24.12035-12.758582-121.562637-50.163493-239.325737-36.924981-350.424044 31.67849-3.190669 1.966795-6.379291 4.063549-9.853415 5.507434-30.697139 12.758582-62.791092 19.881816-96.197946 20.928658-61.48126 1.922792-117.5216-14.244422-168.035064-47.889707-2.753717-1.837858-5.54939-3.497661-8.43409-4.894474-6.773264-3.889587-14.682397-6.161327-23.136953-6.161327-25.016767 0-45.291532 19.443841-45.291532 43.433208 0 9.350972 3.101641 17.960047 8.302083 25.039279 3.452635 5.198395 8.061606 9.872858 13.831007 13.762445 63.556525 42.824341 134.125767 64.759933 212.189703 67.25066 30.194696 0 49.618071-4.370541 78.261435-10.356882 33.558303-7.03523 55.144948-13.458523 84.508719-30.019711 62.857607-35.438117 125.956713-55.623855 198.230784-46.186925 27.223015 3.582595 54.490032 9.133008 77.648474 23.639396 69.084425 43.217291 142.931317 63.536059 221.935672 59.95244l0-88.354304C898.751926 647.242194 842.2951 632.473839 787.980054 598.871533zM787.980054 777.85188c-7.734148-4.762467-21.148669-11.534707-24.12035-12.759605-121.562637-50.163493-239.325737-36.923958-350.424044 31.680537-3.190669 1.965771-6.379291 4.064572-9.853415 5.505387-30.697139 12.759605-62.791092 19.882839-96.197946 20.931728-61.48126 1.922792-117.5216-14.246469-168.035064-47.892777-2.753717-1.834788-5.54939-3.495614-8.43409-4.89345-6.773264-3.889587-14.682397-6.161327-23.136953-6.161327-25.016767 0-45.291532 19.445888-45.291532 43.434232 0 9.353019 3.101641 17.960047 8.302083 25.038256 3.452635 5.201465 8.061606 9.875928 13.831007 13.765515 63.556525 42.821271 134.125767 64.757886 212.189703 67.248613 30.194696 0 49.618071-4.370541 78.261435-10.354835 33.558303-7.036253 55.144948-13.458523 84.508719-30.019711 62.857607-35.438117 125.956713-55.625902 198.230784-46.188972 27.223015 3.584642 54.490032 9.133008 77.648474 23.641443 69.084425 43.214221 142.931317 63.534012 221.935672 59.950394l0-88.354304C898.751926 826.224588 842.2951 811.454186 787.980054 777.85188zM241.468029 421.593967l357.963765 0 0 89.490174 89.48915 0L688.920944 242.612597l12.410658 0c15.511275-26.632567 44.046169-44.74611 77.079516-44.74611 33.034371 0 61.569264 18.11252 77.081563 44.74611l95.565543 0C931.088402 165.553547 861.695962 108.376313 778.411117 108.376313S625.734856 165.553547 605.767082 242.612597l-6.335289 0 0 89.490174L241.468029 332.10277l0-44.745087c0-49.420573 40.069601-89.491197 89.490174-89.491197 33.034371 0 61.568241 18.11252 77.080539 44.74611l95.565543 0C483.655953 165.553547 414.266583 108.376313 330.958202 108.376313c-96.969519 0-175.928848 77.134775-178.886203 173.387979l-0.095167 0 0 274.065959 89.491197 0L241.468029 421.593967z" fill="black" p-id="7291"></path></svg>
