<svg t="1732797698868" fill="#0000ff" class="icon" viewBox="0 0 1024 1024" version="1.1" xmlns="http://www.w3.org/2000/svg" p-id="4191" width="32" height="32">
	<path d="M1002.609195 247.351274L287.530368 1.401678a25.810958 25.810958 0 0 0-20.619966 1.679997 25.766958 25.766958 0 0 0-12.749979 16.299973L4.800832 991.800053c-3.539994 13.799977 4.779992 27.849954 18.56997 31.389948 2.149996 0.549999 4.299993 0.809999 6.419989 0.809999 11.489981 0 21.969964-7.739987 24.959959-19.389968l95.919843-374.059386c0.04-0.01 0.07-0.03 0.11-0.04l852.8586-334.769451a25.790958 25.790958 0 0 0 16.359974-24.55996c-0.22-10.799982-7.169988-20.309967-17.389972-23.829961z m-836.128628 321.599473l130.699785-509.679164 622.398979 214.069649-753.098764 295.609515z" p-id="4192">
	</path>
	<path d="M946.639287 698.960533c-37.649938-31.119949-85.17986-64.359894-152.25975-74.929877-66.419891-10.459983-144.629763 2.879995-239.099608 40.779933-85.28986 34.219944-150.409753 33.109946-190.019688 26.159957-41.099933-7.219988-64.069895-22.039964-65.889892-23.249961-8.479986-5.609991-16.849972-8.029987-26.019957-4.569993-13.399978 5.049992-20.159967 20.009967-15.109976 33.409945a25.789958 25.789958 0 0 0 11.769981 13.559978c6.25999 4.309993 55.939908 36.46994 142.379766 36.46994 44.569927 0 98.919838-8.559986 162.099734-33.909944 191.379686-76.779874 269.699558-31.499948 339.299444 26.029957 10.979982 9.069985 27.229955 7.529988 36.30994-3.439994 9.059985-10.979982 7.509988-27.229955-3.459994-36.309941zM946.639287 887.360224c-37.649938-31.119949-85.17986-64.359894-152.25975-74.929877-66.419891-10.459983-144.629763 2.879995-239.099608 40.779933-85.28986 34.219944-150.409753 33.109946-190.019688 26.159957-41.099933-7.219988-64.069895-22.039964-65.889892-23.249962-8.479986-5.609991-16.849972-8.029987-26.019957-4.569992-13.399978 5.049992-20.159967 20.009967-15.109976 33.409945a25.789958 25.789958 0 0 0 11.769981 13.559978c6.25999 4.309993 55.939908 36.46994 142.379766 36.46994 44.569927 0 98.919838-8.559986 162.099734-33.909944 191.379686-76.779874 269.699558-31.499948 339.299444 26.029957 10.979982 9.069985 27.229955 7.529988 36.30994-3.439994 9.059985-10.989982 7.509988-27.239955-3.459994-36.309941z" p-id="4193">
	</path>
</svg>
