<svg t="1732797746867" class="icon" viewBox="0 0 1024 1024" version="1.1" xmlns="http://www.w3.org/2000/svg" p-id="5256" width="32" height="32">
	<path d="M790.8 253.9c-63.3-9.7-149.9-10.3-246.8 25l-15.4 5.9c-120.9 48.4-230.1 48.4-309 36.3-44.9-6.9-89.9-17.4-130.8-37.8-22.1-11.1-31.1-38-20.1-60.1 10.3-20.5 34.1-29.7 55.2-22.1l4.8 2c32.3 15.7 69.3 24 104.5 29.5 63.3 9.7 149.9 10.3 246.8-25l15.4-5.9c120.9-48.4 230.1-48.4 309-36.3 44.2 6.8 90.4 17.7 130.8 37.8 22.1 11.1 31.1 38 20.1 60.1-11 22-38.1 30.7-60 20.1-32.6-15.5-69.1-24.1-104.5-29.5z m0 268.8c-63.3-9.7-149.9-10.3-246.8 25l-15.4 5.9c-120.9 48.4-230.1 48.4-309 36.3-44.9-6.9-89.9-17.4-130.8-37.8-22.1-11.1-31.1-38-20.1-60.1 10.3-20.5 34.1-29.7 55.2-22.2l4.8 2c32.3 15.7 69.3 24 104.5 29.5 63.3 9.7 149.9 10.3 246.8-25l15.4-5.9c120.9-48.4 230.1-48.4 309-36.3 44.2 6.8 90.4 17.7 130.8 37.8 22.1 11.1 31.1 38 20.1 60.1-11 22-38.1 30.7-60 20.1-32.6-15.4-69.1-24-104.5-29.4z m-278.6 306l16.4-6.3c103.1-41.2 195.5-41.2 262.2-30.9 35.4 5.4 71.9 14.1 104.4 29.4 21.9 10.6 49.1 1.9 60-20.1 11.1-22.1 2.1-49.1-20.1-60.1-40.4-20.1-86.6-31-130.8-37.8-75.4-11.6-178.3-12.1-292.6 30l-16.4 6.3c-103.1 41.2-195.5 41.2-262.2 30.9-30.2-4.6-61.7-11.4-90.4-23.2l-14.1-6.3c-22.1-11-48.9-2-60 20.1-11.1 22.1-2.1 49.1 20.1 60.1 40.9 20.4 85.9 30.9 130.8 37.8 75.5 11.7 178.4 12.1 292.7-29.9z" p-id="5257" fill="blue">
	</path>
</svg>
